<svg xmlns="http://www.w3.org/2000/svg" xml:space="preserve" viewBox="0 0 707.8 944.4"><path d="m532.7 767.2-80-320.1c-4.5-17.8-20.5-30.3-38.8-30.3H395c-19.1 8.8-40 13.3-61.1 13.3v600.1h26.7c22.1 0 40-17.9 40-40V816.9h93.3c26 0 45.1-24.4 38.8-49.7M440.6 283.5c0-58.9-47.8-106.7-106.7-106.7v213.4c58.9 0 106.7-47.8 106.7-106.7"/><path d="M253.9 416.9c-44.2 0-80 35.8-80 80v226.7c0 22.1 17.9 40 40 40h26.7v226.7c0 22.1 17.9 40 40 40h53.3V430.2c-20.7 0-41.5-4.3-61.1-13.3zM227.2 283.5c0 58.9 47.8 106.7 106.7 106.7V176.8c-58.9 0-106.7 47.8-106.7 106.7"/></svg>