<svg xmlns="http://www.w3.org/2000/svg" viewBox="0 0 512 512" style="height: 512px; width: 512px;"><g class="" transform="translate(0,0)" style=""><g><path d="M128 22.781C116.899 33.722 108.178 50.381 101.924 63.984C107.968 84.047 113.007 104.853 129.463 118.91C148.325 104.895 156.513 85.158 164.65 62.559C154.631 51.155 144.412 34.368 128 22.78Z" class="" fill="#fff" fill-opacity="1"></path><path d="M384 22.781C367.588 34.368 357.369 51.155 347.35 62.559C355.487 85.158 363.675 104.895 382.537 118.91C398.993 104.853 404.032 84.047 410.077 63.984C403.821 50.381 395.1 33.722 384 22.781Z" class="" fill="#fff" fill-opacity="1"></path><path d="M222.23 46.104C210.684 48.853 197.282 53.333 185.19 58.784C176.568 87.684 163.266 114.147 139.225 133.518L155.775 310.625L135.842 302.187L121.232 134.4C105.069 118.394 93.231 91.377 82.842 63.115C79.297 60.811 75.759 58.965 72.221 57.691C78.458 140.617 97.562 244.423 119.227 332.283C121.771 331.124 124.973 329.883 127.951 328.824C157.415 336.142 184.946 358.181 209.799 381.891C192 272 256 160 222.23 46.104Z" class="" fill="#fff" fill-opacity="1"></path><path d="M289.77 46.104C256 160 320 272 302.2 381.89C327.053 358.18 354.584 336.14 384.048 328.823C387.026 329.883 390.228 331.123 392.772 332.283C414.437 244.423 433.542 140.616 439.778 57.69C436.24 58.964 432.702 60.81 429.158 63.114C418.768 91.376 406.93 118.394 390.767 134.399L376.157 302.186L356.224 310.624L372.774 133.517C348.734 114.147 335.431 87.683 326.81 58.782C314.717 53.332 301.315 48.852 289.769 46.102Z" class="" fill="#fff" fill-opacity="1"></path><path d="M129.004 347.83C115.694 353.502 101.089 366.185 95.99 382.496C119.715 387.175 148.798 400.903 171.514 422.885L175.461 449.752L208.928 437.678L207.598 408.596C187.848 379.895 156.525 355.676 129.004 347.83Z" class="" fill="#fff" fill-opacity="1"></path><path d="M382.996 347.83C355.476 355.676 324.153 379.895 304.402 408.596L303.072 437.678L336.539 449.752L340.486 422.885C363.202 400.903 392.286 387.175 416.01 382.496C410.911 366.185 396.306 353.502 382.996 347.83Z" class="" fill="#fff" fill-opacity="1"></path><path d="M90.69 399.703L38.433 438.975C28.121 454.226 25.51 471.584 29.776 486.133C82.335 495.426 118.028 482.846 158.819 460.295L154.544 431.211C139.841 416.076 120.879 404.857 90.69 399.703Z" class="" fill="#fff" fill-opacity="1"></path><path d="M421.312 399.703C391.123 404.857 372.161 416.076 357.458 431.211L353.183 460.295C393.974 482.845 429.667 495.426 482.226 486.133C486.492 471.583 483.881 454.226 473.569 438.975L421.312 399.703Z" class="selected" fill="#fff" fill-opacity="1"></path></g></g></svg>
