<svg xmlns="http://www.w3.org/2000/svg" style="height:512px;width:512px" viewBox="0 0 512 512"><path d="M322.516 37.237c-1.803.002-3.542.234-5.306.377l-51.752 85.42c61.384 5.321 91.779 33.505 102.81 61.26l-16.726 6.646c-7.707-19.39-26.96-40.824-72.317-48.174 19.162 13.713 33.542 29.578 40.928 48.9l-16.814 6.427c-7.863-20.571-27.13-38.098-55.735-53.84-10.062 4.12-61.61 25.173-79.455 31.217-37.145 12.579-57.377 38.092-95.982 82.9l-.131.15-.135.145c-6.262 6.652-8.894 12.653-9.498 17.03-.604 4.375.484 7.097 2.408 9.13 3.848 4.066 14.178 6.64 29.47-3.732l.075-.051 75.041-48.772 10.854 14.301-51.455 45.31-94.098 86.962c-11.929 11.024-11.736 21.742-8.95 25.441 1.394 1.85 3.499 3.27 8.583 3.041s12.946-2.695 22.781-9.432c29.733-20.365 57.435-40.716 81.75-65.261l-.053-.223.367-.092q.26-.257.518-.515l.35.293a108 108 0 0 0 10.084-3.188c6.013-2.246 12.442-6.342 13.205-7.377.324-.44 2.174-6.693 2.49-12.154s.006-10.104.006-10.104l17.957-1.232s.397 5.64.008 12.375c-.39 6.734-.655 14.586-5.977 21.8-5.76 7.81-14.184 10.863-21.392 13.555a117 117 0 0 1-6.326 2.143c-24.372 32.684-55.333 57.576-83.96 83.508-9.904 8.972-14.003 16.689-14.915 21.431-.913 4.743.134 6.407 2.586 8.18 4.902 3.546 21.164 4.119 37.998-11.39 33.014-30.417 65.222-60.634 89.838-96.72l.812.483c1.444-.624 4.209-1.855 7.963-3.904 4.97-2.713 10.363-7.018 11.084-8.106.685-1.033 2.533-7.58 3.088-13.133s.512-10.205.512-10.205l17.998-.193s.064 5.543-.6 12.19c-.665 6.646-1.366 14.304-5.996 21.289-4.666 7.038-11.527 10.72-17.463 13.959-1.81.988-3.477 1.826-5.023 2.578-16.473 29.911-40.153 55.83-65.37 82.955-5.39 5.798-6.381 10.204-6.062 13.312.32 3.108 2.042 5.768 5.422 7.867 6.76 4.2 19.635 4.864 31.433-7.312 13.606-14.042 25.93-28.72 36.664-44.297 9.298-16.962 18.75-34.088 27.762-51.195l.584.271c.878-.286 3.91-1.295 7.867-3.045 4.577-2.023 9.602-5.513 10.053-6.093.437-.563 2.57-6.262 3.397-11.168a92 92 0 0 0 1.06-9.057l17.975.99s-.274 5.05-1.285 11.057c-1.012 6.006-2.046 12.933-6.934 19.222-4.902 6.308-11.39 9.038-16.986 11.512-.859.38-1.641.691-2.45 1.024-7.137 16.201-15.774 31.408-25.623 45.804-3.572 6.519-7.224 13.13-10.648 19.502-3.152 5.866-3.348 10.106-2.637 12.965.712 2.86 2.318 4.716 4.73 5.94 4.825 2.448 13.382 2.178 21.13-8.612 57.44-79.992 126.521-160.277 157.107-264.986 2.243-7.679 7.14-11.461 12.994-16.895s12.982-11.267 19.97-17.056c6.99-5.79 13.841-11.54 18.83-16.39 3.311-3.22 5.419-6.373 6.458-7.813-2.444-9.527-6.436-19.066-11.633-28.252-11.087 7.119-23.137 13.666-32.795 18.957 6.175-14.902 9.925-30.611 12.399-46.746a155 155 0 0 0-16.739-15.631c-21.237-17.053-46.035-27.498-68.178-27.473" style="fill:#fff"/></svg>