<svg xmlns="http://www.w3.org/2000/svg" opacity=".33" version="1.0" viewBox="0 0 200 289.742"><path d="M93.538 0Q66.369 0 45.214 9.334q-20.948 9.334-31.94 26.547C6.084 47.22 2.972 60.631 2.972 76.116q0 15.97 8.175 29.453 8.424 13.48 25.27 25.094 16.845 11.41 45.83 23.438 29.977 12.444 44.593 21.776 14.615 9.334 21.055 19.91 6.442 10.578 6.442 26.134 0 24.267-15.606 36.917-15.36 12.653-44.345 12.653-21.058 0-34.434-4.978-13.378-5.185-21.8-15.763-8.424-10.577-13.379-28.829H0v56.827q50.785 10.993 89.678 10.994 24.03 0 44.098-4.148 20.314-4.356 34.683-13.69 14.615-9.54 22.79-24.474 8.175-15.14 8.175-36.917 0-19.495-9.908-34.014-9.661-14.726-27.251-26.132-17.341-11.406-49.051-24.68-26.26-10.786-39.638-19.497c-13.378-8.711-18.607-12.434-24.097-18.874-5.426-6.366-9.658-15.07-9.658-24.887q0-13.896 6.223-23.85C57.142 24.18 87.331 36.782 91.12 62.925q7.26 10.163 12.03 28.415h20.532v-56c-4.479-5.924-9.955-10.631-15.909-14.373 1.64.479 3.19 1.023 4.639 1.64q9.748 3.939 17.007 14.103 7.26 10.162 12.03 28.414s8.48-.129 8.49-.002c.417 6.415-1.754 9.453-4.124 12.561-2.417 3.17-5.145 6.79-4.003 13.003 1.508 8.203 10.184 10.597 14.622 9.312-3.318-.5-5.318-1.75-5.318-1.75s1.876.999 5.65-1.36c-3.276.956-10.704-.797-11.8-6.763-.958-5.208.946-7.295 3.4-10.514 2.455-3.22 5.285-6.959 4.685-14.489l.003.002h8.927v-56q-22.607-5.807-37.747-7.465Q109.301-.001 93.537 0zm70.321 17.309.238 40.305c1.318 1.226 2.44 2.278 3.341 3.106q7.26 10.162 12.03 28.414H200v-56c-6.677-4.594-19.836-10.473-36.14-15.825zm-28.12 5.605 8.565 17.717c-11.97-6.467-13.847-9.717-8.565-17.717m22.797 0c2.771 8 1.787 11.25-4.494 17.717zm15.222 24.009 8.565 17.716c-11.97-6.466-13.847-9.717-8.565-17.716m22.797 0c2.771 8 1.787 11.25-4.494 17.716zM97.44 49.13l8.565 17.716c-11.97-6.467-13.847-9.717-8.565-17.716m22.795 0c2.772 7.999 1.788 11.25-4.493 17.716z"/></svg>