<?xml version="1.0" encoding="UTF-8" standalone="no"?>
<!-- Created with Inkscape (http://www.inkscape.org/) -->

<svg
   width="180"
   height="180"
   viewBox="0 0 180 180"
   version="1.1"
   id="svg1"
   xml:space="preserve"
   inkscape:version="1.3 (0e150ed6c4, 2023-07-21)"
   sodipodi:docname="t-cable.svg"
   xmlns:inkscape="http://www.inkscape.org/namespaces/inkscape"
   xmlns:sodipodi="http://sodipodi.sourceforge.net/DTD/sodipodi-0.dtd"
   xmlns="http://www.w3.org/2000/svg"
   xmlns:svg="http://www.w3.org/2000/svg"><sodipodi:namedview
     id="namedview1"
     pagecolor="#ffffff"
     bordercolor="#000000"
     borderopacity="0.25"
     inkscape:showpageshadow="2"
     inkscape:pageopacity="0.0"
     inkscape:pagecheckerboard="true"
     inkscape:deskcolor="#d1d1d1"
     inkscape:document-units="px"
     inkscape:zoom="9.1432397"
     inkscape:cx="102.86288"
     inkscape:cy="90.175914"
     inkscape:window-width="3840"
     inkscape:window-height="2294"
     inkscape:window-x="-11"
     inkscape:window-y="-11"
     inkscape:window-maximized="1"
     inkscape:current-layer="layer1" /><defs
     id="defs1" /><g
     inkscape:label="Layer 1"
     inkscape:groupmode="layer"
     id="layer1"><path
       id="path3080"
       style="fill:#f9f9f9;fill-opacity:1;stroke-width:5.14954"
       d="m 90.287514,59.027962 a 34.937973,31.248517 0 0 0 -20.940485,6.341044 c -0.137035,-0.855839 -0.156873,-0.85529 -0.05228,0.029 A 34.937973,31.248517 0 0 0 60.84948,73.46931 c -41.871862,41.07742 -45.439114,33.96711 -45.439114,33.96711 l -0.491851,5.45175 1.475563,0.90863 c 0,0 23.11383,-10.16283 39.086809,-22.01 A 34.937973,31.248517 0 0 0 90.287514,121.52978 34.937973,31.248517 0 0 0 125.23018,90.278871 34.937973,31.248517 0 0 0 122.83369,78.93072 c 27.68436,12.660441 40.93914,-5.587078 40.93914,-5.587078 l -4.91856,-4.543127 c 0,0 -10.73224,16.068441 -42.96934,0.222323 A 34.937973,31.248517 0 0 0 92.600268,59.105292 c -0.13329,-0.06582 -0.198577,-0.0775 -0.136099,-0.0097 a 34.937973,31.248517 0 0 0 -2.176717,-0.06766 z m 0,8.941256 A 24.850251,21.930778 0 0 1 115.14191,89.901888 24.850251,21.930778 0 0 1 90.287514,111.82489 24.850251,21.930778 0 0 1 65.443582,89.901888 24.850251,21.930778 0 0 1 90.287514,67.969218 Z" /></g></svg>
