<svg xmlns="http://www.w3.org/2000/svg" xml:space="preserve" width="180" height="180"><path d="M90.288 59.028a34.938 31.249 0 0 0-20.941 6.341c-.137-.856-.157-.855-.052.029a34.938 31.249 0 0 0-8.446 8.071c-41.871 41.078-45.439 33.967-45.439 33.967l-.491 5.452 1.475.909s23.114-10.163 39.087-22.01a34.938 31.249 0 0 0 34.807 29.743 34.938 31.249 0 0 0 34.942-31.251 34.938 31.249 0 0 0-2.396-11.348c27.684 12.66 40.939-5.587 40.939-5.587l-4.919-4.543s-10.732 16.068-42.97.222A34.938 31.249 0 0 0 92.6 59.105c-.133-.066-.198-.077-.136-.01a34.938 31.249 0 0 0-2.177-.067m0 8.941a24.85 21.93 0 0 1 24.854 21.933 24.85 21.93 0 0 1-24.854 21.923 24.85 21.93 0 0 1-24.844-21.923 24.85 21.93 0 0 1 24.844-21.933" style="fill:#f9f9f9;fill-opacity:1;stroke-width:5.14954"/></svg>