<svg xmlns="http://www.w3.org/2000/svg" xml:space="preserve" width="180" height="180"><path d="M61.236 44.953v73.277h11.239v-11.238h5.504v11.238h5.85v-11.238h5.503v11.238h33.828V44.953ZM77.98 67.43h28.554v17.2H77.98Zm22.705 33.713h5.505v5.85h5.504v5.503h-5.504V118h-5.505v-5.504H95.18v-5.504h5.504zM123.166 118.264l-61.93.31 5.848 16.858 5.162 5.16 39.563.344 5.504-5.848z" style="fill:#fff"/><path d="m123.166 118.264-5.853 16.824-5.504 5.848-39.563-.344-5.162-5.16-5.848-16.858zM83.846 33.918h-6.0040000000000004L66.736 39.32l-2.7 5.405h56.128l-2.701-5.405-11.106-5.402h-5.402zM78.143 28.215v5.703h5.703v-5.703zM100.955 33.918h5.703v-5.703h-5.703zM89.248 28.516v5.103h6.004v-5.103z" style="fill:#fff"/><path d="M89.332 118.23h-5.504v.114h5.504zM77.979 118.23h-5.504v.114h5.504z" style="fill:#1a1a1a"/></svg>