<?xml version="1.0" encoding="UTF-8" standalone="no"?>
<!-- Created with Inkscape (http://www.inkscape.org/) -->

<svg
   width="180"
   height="180"
   viewBox="0 0 180 180"
   version="1.1"
   id="svg1"
   xml:space="preserve"
   inkscape:version="1.3 (0e150ed6c4, 2023-07-21)"
   sodipodi:docname="t-multitool.svg"
   xmlns:inkscape="http://www.inkscape.org/namespaces/inkscape"
   xmlns:sodipodi="http://sodipodi.sourceforge.net/DTD/sodipodi-0.dtd"
   xmlns="http://www.w3.org/2000/svg"
   xmlns:svg="http://www.w3.org/2000/svg"><sodipodi:namedview
     id="namedview1"
     pagecolor="#ffffff"
     bordercolor="#000000"
     borderopacity="0.25"
     inkscape:showpageshadow="2"
     inkscape:pageopacity="0.0"
     inkscape:pagecheckerboard="true"
     inkscape:deskcolor="#d1d1d1"
     inkscape:document-units="px"
     inkscape:zoom="10.202482"
     inkscape:cx="100.51476"
     inkscape:cy="99.24056"
     inkscape:window-width="3840"
     inkscape:window-height="2294"
     inkscape:window-x="-11"
     inkscape:window-y="-11"
     inkscape:window-maximized="1"
     inkscape:current-layer="layer1"
     inkscape:lockguides="false" /><defs
     id="defs1" /><g
     inkscape:label="Layer 1"
     inkscape:groupmode="layer"
     id="layer1"><path
       d="m 61.236328,44.953125 v 73.277345 h 11.238281 v -11.23828 h 5.503907 v 11.23828 h 5.849609 v -11.23828 h 5.503906 v 11.23828 H 123.16016 V 44.953125 Z M 77.978516,67.429687 H 106.5332 V 84.630859 H 77.978516 Z m 22.705074,33.712893 h 5.50586 v 5.84961 h 5.50391 v 5.5039 h -5.50391 V 118 h -5.50586 v -5.50391 h -5.503903 v -5.5039 h 5.503903 z"
       style="fill:#ffffff"
       id="path19" /><path
       d="m 123.16602,118.26367 -61.929692,0.31055 5.847656,16.85742 5.16211,5.16016 39.562496,0.34375 5.50391,-5.84766 z"
       style="fill:#ffffff"
       id="path23" /><path
       d="m 123.16602,118.26367 -5.85352,16.82422 -5.50391,5.84766 -39.562496,-0.34375 -5.16211,-5.16016 -5.847656,-16.85742 z"
       style="fill:#ffffff"
       id="path22" /><path
       d="m 83.845703,33.917969 h -5.703125 -0.300781 l -11.105469,5.402343 -2.701172,5.404297 h 56.128904 l -2.70117,-5.404297 -11.10547,-5.402343 h -5.40234 z"
       style="fill:#ffffff"
       id="path16" /><path
       d="m 78.142578,28.214844 v 5.703125 h 5.703125 v -5.703125 z"
       style="fill:#ffffff"
       id="path15" /><path
       d="m 100.95508,33.917969 h 5.40234 0.30078 v -5.703125 h -5.70312 z"
       style="fill:#ffffff"
       id="path17" /><path
       d="m 89.248047,28.515625 v 5.103516 h 6.003906 v -5.103516 z"
       style="fill:#ffffff"
       id="path18" /><path
       d="m 89.332031,118.23047 h -5.503906 v 0.11328 h 5.503906 z"
       style="fill:#1a1a1a"
       id="path20" /><path
       d="m 77.978516,118.23047 h -5.503907 v 0.11328 h 5.503907 z"
       style="fill:#1a1a1a"
       id="path21" /></g></svg>
