<svg xmlns="http://www.w3.org/2000/svg" xml:space="preserve" width="180" height="180"><path d="m35.798 32.04.002.38-7.715 4.96-2.967 5.34v17.207l5.34 8.01 5.636 3.263h16.91l10.59-5.158-5.25 10.498-5.042 5.637-6.23 45.092.296 22.844 5.934 5.34 16.316-.297 11.273-11.274V92.538l3.856 3.582 7.418 2.967-.297-5.637-7.713-3.263-2.967-13.053-.297 7.565V65.564l17.8-.297 21.36-2.373.007-.297 22.244-2.967 1.779-5.34-.53-.025 10.024-.272.889-2.373-.889-2.67H143.19l-5.933-3.56-16.908-.297-4.749-2.076-20.468-2.67-17.207.297-13.944 2.373.236.316-5.279.278-11.867-9.198-10.68-2.248v-.125l-.146.094z" style="fill:#fff"/></svg>