<?xml version="1.0" encoding="UTF-8" standalone="no"?>
<!-- Created with Inkscape (http://www.inkscape.org/) -->

<svg
   width="180"
   height="180"
   viewBox="0 0 180 180"
   version="1.1"
   id="svg1"
   xml:space="preserve"
   inkscape:version="1.3 (0e150ed6c4, 2023-07-21)"
   sodipodi:docname="t-welder.svg"
   xmlns:inkscape="http://www.inkscape.org/namespaces/inkscape"
   xmlns:sodipodi="http://sodipodi.sourceforge.net/DTD/sodipodi-0.dtd"
   xmlns="http://www.w3.org/2000/svg"
   xmlns:svg="http://www.w3.org/2000/svg"><sodipodi:namedview
     id="namedview1"
     pagecolor="#ffffff"
     bordercolor="#000000"
     borderopacity="0.25"
     inkscape:showpageshadow="2"
     inkscape:pageopacity="0.0"
     inkscape:pagecheckerboard="true"
     inkscape:deskcolor="#d1d1d1"
     inkscape:document-units="px"
     inkscape:zoom="10.11239"
     inkscape:cx="96.910824"
     inkscape:cy="85.983634"
     inkscape:window-width="3840"
     inkscape:window-height="2294"
     inkscape:window-x="-11"
     inkscape:window-y="-11"
     inkscape:window-maximized="1"
     inkscape:current-layer="layer1"
     inkscape:lockguides="false" /><defs
     id="defs1" /><g
     inkscape:label="Layer 1"
     inkscape:groupmode="layer"
     id="layer1"><path
       id="path8352"
       style="fill:#ffffff"
       d="m 35.797573,32.040317 0.002,0.378907 -7.714843,4.960937 -2.966797,5.339844 v 17.207031 l 5.339843,8.009766 5.636719,3.263672 h 16.910156 l 10.589844,-5.158203 -5.25,10.498046 -5.042969,5.636719 -6.230468,45.091804 0.296875,22.84375 5.933593,5.33984 16.316407,-0.29687 11.273437,-11.27344 V 92.538364 l 3.855469,3.582032 7.417969,2.966799 -0.296875,-5.636721 -7.712891,-3.263672 -2.966797,-13.052735 -0.296875,7.564454 V 65.563755 l 17.798828,-0.296875 21.361319,-2.373047 0.006,-0.296875 22.24414,-2.966797 1.7793,-5.339844 -0.5293,-0.02539 10.02344,-0.271484 0.88867,-2.373047 -0.88867,-2.669922 h -10.38476 l -5.9336,-3.560547 -16.9082,-0.296875 L 115.6003,43.01688 95.131557,40.346958 77.924526,40.643833 63.981167,43.01688 64.217495,43.333286 58.938198,43.61063 47.071011,34.413364 36.391323,32.165317 v -0.125 l -0.146484,0.09375 z" /></g></svg>
