<svg xmlns="http://www.w3.org/2000/svg" xml:space="preserve" width="180" height="180"><path d="m83.258 72.398.347.278v12.906l-.195-.016.047 4.098.223-.018v12.909l-.075.06v.06l60.35-.349 9.42-8.37v-5.7h-5.111l-6.647 6.904-7.168-6.904h-6.22l-2.495 2.734-2.998-2.734h-12.654l-.973 1.017-1.652-1.578 1.578-1.652.856.816h13.427l2.31-2.533 2.78 2.533h7.319l5.623-5.84 6.064 5.84h5.961v-5.463l-9.768-8.373-60.35-.697z" style="fill:#fff"/><path d="m31.977 68.488-3.836 3.838.347 9.07 4.535 4.186h38.721l4.535-4.186 2.791 3.838 4.34.332-.152-13.168-4.885-3.91zM83.605 102.615l-.148-12.95-4.312.331-2.79 3.836-4.535-4.186H33.098l-4.535 4.186-.348 9.07 3.836 3.838h46.396z" style="fill:#fff"/><path d="M106.957 77.5A1.957 1.957 0 0 0 105 79.457a1.957 1.957 0 0 0 1.957 1.957 1.957 1.957 0 0 0 1.957-1.957 1.957 1.957 0 0 0-1.957-1.957m12 0A1.957 1.957 0 0 0 117 79.457a1.957 1.957 0 0 0 1.957 1.957 1.957 1.957 0 0 0 1.957-1.957 1.957 1.957 0 0 0-1.957-1.957m12 .225A1.957 1.957 0 0 0 129 79.682a1.957 1.957 0 0 0 1.957 1.957 1.957 1.957 0 0 0 1.957-1.957 1.957 1.957 0 0 0-1.957-1.957m-24 17.275A1.957 1.957 0 0 0 105 96.957a1.957 1.957 0 0 0 1.957 1.957 1.957 1.957 0 0 0 1.957-1.957A1.957 1.957 0 0 0 106.957 95m12 0A1.957 1.957 0 0 0 117 96.957a1.957 1.957 0 0 0 1.957 1.957 1.957 1.957 0 0 0 1.957-1.957A1.957 1.957 0 0 0 118.957 95m12 0A1.957 1.957 0 0 0 129 96.957a1.957 1.957 0 0 0 1.957 1.957 1.957 1.957 0 0 0 1.957-1.957A1.957 1.957 0 0 0 130.957 95" style="fill:#ececec"/></svg>