<?xml version="1.0" encoding="UTF-8" standalone="no"?>
<!-- Created with Inkscape (http://www.inkscape.org/) -->

<svg
   width="180"
   height="180"
   viewBox="0 0 180 180"
   version="1.1"
   id="svg1"
   xml:space="preserve"
   inkscape:version="1.3 (0e150ed6c4, 2023-07-21)"
   sodipodi:docname="t-wirecutters.svg"
   xmlns:inkscape="http://www.inkscape.org/namespaces/inkscape"
   xmlns:sodipodi="http://sodipodi.sourceforge.net/DTD/sodipodi-0.dtd"
   xmlns="http://www.w3.org/2000/svg"
   xmlns:svg="http://www.w3.org/2000/svg"><sodipodi:namedview
     id="namedview1"
     pagecolor="#ffffff"
     bordercolor="#000000"
     borderopacity="0.25"
     inkscape:showpageshadow="2"
     inkscape:pageopacity="0.0"
     inkscape:pagecheckerboard="true"
     inkscape:deskcolor="#d1d1d1"
     inkscape:document-units="px"
     inkscape:zoom="11.722891"
     inkscape:cx="95.795482"
     inkscape:cy="82.701442"
     inkscape:window-width="3840"
     inkscape:window-height="2294"
     inkscape:window-x="-11"
     inkscape:window-y="-11"
     inkscape:window-maximized="1"
     inkscape:current-layer="layer1"
     inkscape:lockguides="false" /><defs
     id="defs1" /><g
     inkscape:label="Layer 1"
     inkscape:groupmode="layer"
     id="layer1"><path
       d="m 83.257812,72.398437 0.347657,0.277344 v 12.90625 l -0.195313,-0.01563 0.04687,4.097656 0.222656,-0.01758 v 12.908206 l -0.07422,0.0605 v 0.0606 l 60.349611,-0.34961 9.41992,-8.371092 v -5.699219 h -5.11133 l -6.64648,6.904297 -7.16797,-6.904297 h -6.2207 l -2.49414,2.734375 -2.99805,-2.734375 h -12.6543 l -0.97265,1.017578 -1.65235,-1.578125 1.57813,-1.652343 0.85547,0.816406 h 13.42773 l 2.31055,-2.533203 2.77929,2.533203 h 7.31836 l 5.62305,-5.839844 6.06445,5.839844 h 5.96094 v -5.462891 l -9.76758,-8.373047 -60.349608,-0.697265 z"
       style="fill:#ffffff"
       id="path2121" /><path
       d="m 31.976562,68.488281 -3.835937,3.837891 0.347656,9.070312 4.535156,4.185547 h 38.720704 l 4.535156,-4.185547 2.791015,3.837891 4.339844,0.332031 -0.152344,-13.167969 -4.884765,-3.910156 z"
       style="fill:#ffffff"
       id="path2120" /><path
       d="m 83.605469,102.61523 -0.148438,-12.951168 -4.3125,0.332032 -2.789062,3.835937 -4.535157,-4.185547 H 33.097656 l -4.535156,4.185547 -0.347656,9.070309 3.835937,3.83789 h 46.396485 z"
       style="fill:#ffffff"
       id="path2122" /><path
       id="path2124"
       style="fill:#ececec"
       d="M 106.95703 77.5 A 1.9571146 1.9571146 0 0 0 105 79.457031 A 1.9571146 1.9571146 0 0 0 106.95703 81.414062 A 1.9571146 1.9571146 0 0 0 108.91406 79.457031 A 1.9571146 1.9571146 0 0 0 106.95703 77.5 z M 118.95703 77.5 A 1.9571146 1.9571146 0 0 0 117 79.457031 A 1.9571146 1.9571146 0 0 0 118.95703 81.414062 A 1.9571146 1.9571146 0 0 0 120.91406 79.457031 A 1.9571146 1.9571146 0 0 0 118.95703 77.5 z M 130.95703 77.724609 A 1.9571146 1.9571146 0 0 0 129 79.681641 A 1.9571146 1.9571146 0 0 0 130.95703 81.638672 A 1.9571146 1.9571146 0 0 0 132.91406 79.681641 A 1.9571146 1.9571146 0 0 0 130.95703 77.724609 z M 106.95703 95 A 1.9571146 1.9571146 0 0 0 105 96.957031 A 1.9571146 1.9571146 0 0 0 106.95703 98.914062 A 1.9571146 1.9571146 0 0 0 108.91406 96.957031 A 1.9571146 1.9571146 0 0 0 106.95703 95 z M 118.95703 95 A 1.9571146 1.9571146 0 0 0 117 96.957031 A 1.9571146 1.9571146 0 0 0 118.95703 98.914062 A 1.9571146 1.9571146 0 0 0 120.91406 96.957031 A 1.9571146 1.9571146 0 0 0 118.95703 95 z M 130.95703 95 A 1.9571146 1.9571146 0 0 0 129 96.957031 A 1.9571146 1.9571146 0 0 0 130.95703 98.914062 A 1.9571146 1.9571146 0 0 0 132.91406 96.957031 A 1.9571146 1.9571146 0 0 0 130.95703 95 z " /></g></svg>
