<?xml version="1.0" encoding="UTF-8" standalone="no"?>
<!-- Created with Inkscape (http://www.inkscape.org/) -->

<svg
   width="180"
   height="180"
   viewBox="0 0 180 180"
   version="1.1"
   id="svg1"
   xml:space="preserve"
   inkscape:version="1.3 (0e150ed6c4, 2023-07-21)"
   sodipodi:docname="t-wrench.svg"
   xmlns:inkscape="http://www.inkscape.org/namespaces/inkscape"
   xmlns:sodipodi="http://sodipodi.sourceforge.net/DTD/sodipodi-0.dtd"
   xmlns:xlink="http://www.w3.org/1999/xlink"
   xmlns="http://www.w3.org/2000/svg"
   xmlns:svg="http://www.w3.org/2000/svg"><sodipodi:namedview
     id="namedview1"
     pagecolor="#ffffff"
     bordercolor="#000000"
     borderopacity="0.25"
     inkscape:showpageshadow="2"
     inkscape:pageopacity="0.0"
     inkscape:pagecheckerboard="true"
     inkscape:deskcolor="#d1d1d1"
     inkscape:document-units="px"
     inkscape:zoom="10.506752"
     inkscape:cx="85.944733"
     inkscape:cy="88.46692"
     inkscape:window-width="3840"
     inkscape:window-height="2294"
     inkscape:window-x="-11"
     inkscape:window-y="-11"
     inkscape:window-maximized="1"
     inkscape:current-layer="layer1"
     inkscape:lockguides="false" /><defs
     id="defs1"><linearGradient
       id="linearGradient2110"
       inkscape:collect="always"><stop
         style="stop-color:#000000;stop-opacity:1;"
         offset="0"
         id="stop2110" /><stop
         style="stop-color:#000000;stop-opacity:0;"
         offset="1"
         id="stop2111" /></linearGradient><linearGradient
       inkscape:collect="always"
       xlink:href="#linearGradient2110"
       id="linearGradient2109"
       x1="89.598412"
       y1="100.93208"
       x2="123.86713"
       y2="73.624191"
       gradientUnits="userSpaceOnUse"
       gradientTransform="matrix(1.009425,-0.01914017,-1.5871557e-4,1.0192699,-1.4942885,-0.78814806)" /></defs><g
     inkscape:label="Layer 1"
     inkscape:groupmode="layer"
     id="layer1"><path
       d="M 82.722656,64.199219 68.396484,79.205078 115.25781,124.76563 129.58203,109.75781 Z"
       style="fill:url(#linearGradient2109);stroke-width:1.01433"
       id="path2114" /><path
       id="path2059"
       style="fill:#ffffff"
       d="m 45.744579,34.039355 c -0.638817,2.49e-4 -1.145352,0.0087 -1.492187,0.01758 -0.346837,0.0088 -0.533203,0.01758 -0.533203,0.01758 l 0.90039,0.832032 10.710938,9.179687 -0.01563,0.519531 -0.0059,0.173829 -0.246093,7.873047 -10.128907,1.597656 -0.04492,0.0078 -8.927735,-7.142578 -1.78125,-1.423828 0.183594,-0.207031 -0.71875,-0.595703 c 0,0 0.01561,0.186293 0.05273,0.53125 0.03712,0.344955 0.09541,0.847236 0.179688,1.480468 0.08428,0.633234 0.194471,1.39689 0.335937,2.261719 0.141467,0.86483 0.312797,1.831347 0.521485,2.871094 0.104344,0.519873 0.218767,1.058353 0.341797,1.611328 0.12303,0.552975 0.255466,1.120226 0.398437,1.699219 0.142971,0.578991 0.296772,1.169654 0.460937,1.767578 0.164167,0.597923 0.338776,1.204683 0.525391,1.814453 0.186615,0.60977 0.385385,1.223358 0.595703,1.837891 0.210319,0.614531 0.432693,1.229588 0.667969,1.841796 0.235276,0.61221 0.482654,1.221419 0.744141,1.824219 0.261486,0.602801 0.53722,1.19885 0.826172,1.785157 0.288952,0.586307 0.59053,1.161879 0.908203,1.724609 0.158835,0.281365 0.32203,0.559843 0.488281,0.833984 0.166251,0.274142 0.335943,0.544514 0.509766,0.810547 0.173823,0.266033 0.351651,0.528118 0.533203,0.785156 0.18155,0.257039 0.367203,0.508701 0.55664,0.75586 0.189437,0.247159 0.3826,0.490169 0.580078,0.726562 0.19748,0.236394 0.399791,0.466665 0.605469,0.691406 0.205678,0.224743 0.414874,0.444046 0.628906,0.65625 0.214034,0.212206 0.431751,0.416451 0.654297,0.615235 0.222546,0.198783 0.450425,0.391696 0.681641,0.576172 0.231215,0.184475 0.46699,0.361968 0.707031,0.53125 0.240041,0.169282 0.483398,0.329219 0.732422,0.482422 0.249024,0.153201 0.503555,0.29931 0.761719,0.435547 0.258162,0.136237 0.519649,0.262472 0.787109,0.380859 0.26746,0.118387 0.541448,0.228474 0.818359,0.328125 0.276913,0.09965 0.557229,0.189502 0.84375,0.269531 0.286523,0.08003 0.578712,0.149463 0.875,0.208985 0.29629,0.05952 0.598086,0.110308 0.904297,0.148437 0.306213,0.03813 0.617301,0.06423 0.933594,0.08008 0.316293,0.01585 0.636361,0.02099 0.962891,0.01367 0.326528,-0.0073 0.659171,-0.02723 0.996094,-0.05859 0.336923,-0.03136 0.677916,-0.07456 1.02539,-0.130859 0.347474,-0.0563 0.700413,-0.124911 1.058594,-0.207031 0.358181,-0.08212 0.722752,-0.178283 1.091797,-0.28711 0.369044,-0.108826 0.742981,-0.230768 1.123047,-0.367187 0.380064,-0.136419 0.765007,-0.286275 1.15625,-0.451172 0.391242,-0.164897 0.788829,-0.344802 1.191406,-0.539063 0.402576,-0.194259 0.810542,-0.402443 1.224609,-0.626953 0.414068,-0.22451 0.83405,-0.465058 1.259766,-0.720703 0.425715,-0.255645 0.857401,-0.526788 1.294922,-0.814453 0.437519,-0.287665 0.880596,-0.591539 1.330078,-0.912109 8.048262,-5.740036 5.105745,-3.640437 6.037109,-4.304688 1.038412,-1.96178 -0.846817,1.598036 2.53711,-4.794922 0.258279,-0.487946 0.501269,-0.967716 0.728515,-1.439453 0.227247,-0.471736 0.43965,-0.934826 0.636719,-1.390625 0.197069,-0.455798 0.379126,-0.905569 0.546875,-1.345703 0.167749,-0.440134 0.321652,-0.872133 0.460937,-1.296875 0.139287,-0.424742 0.263321,-0.840378 0.375,-1.25 0.111681,-0.409622 0.209991,-0.812257 0.294922,-1.207031 0.08493,-0.394775 0.157757,-0.781909 0.216797,-1.16211 0.05904,-0.380199 0.104666,-0.753243 0.138672,-1.11914 0.03401,-0.365898 0.05658,-0.726258 0.06641,-1.078125 0.0098,-0.351869 0.0076,-0.695093 -0.0059,-1.033203 -0.01349,-0.338112 -0.03826,-0.669514 -0.07422,-0.994141 -0.03596,-0.324627 -0.08306,-0.643663 -0.140625,-0.955078 -0.05756,-0.311415 -0.126767,-0.615587 -0.205078,-0.914063 -0.07831,-0.298475 -0.165469,-0.591144 -0.263672,-0.876953 -0.0982,-0.285808 -0.206981,-0.564476 -0.324218,-0.83789 -0.117237,-0.273415 -0.243492,-0.541441 -0.378907,-0.802735 -0.135415,-0.261292 -0.280858,-0.51618 -0.433593,-0.765625 -0.152735,-0.249444 -0.313224,-0.4926 -0.482422,-0.730469 -0.169199,-0.237867 -0.346446,-0.470701 -0.53125,-0.697265 -0.184806,-0.226564 -0.376617,-0.44853 -0.576172,-0.664063 -0.199555,-0.215532 -0.407647,-0.424132 -0.621094,-0.628906 -0.213447,-0.204774 -0.433674,-0.405321 -0.660156,-0.599609 -0.226482,-0.194288 -0.458606,-0.382332 -0.697266,-0.566407 -0.23866,-0.184073 -0.48244,-0.362975 -0.732422,-0.537109 -0.249981,-0.174133 -0.50518,-0.343348 -0.765625,-0.507812 -0.260444,-0.164465 -0.526823,-0.3254 -0.796875,-0.480469 -0.270051,-0.155069 -0.545417,-0.305226 -0.824218,-0.451172 -0.278801,-0.145946 -0.560963,-0.286733 -0.847657,-0.423828 -0.286693,-0.137095 -0.577364,-0.269921 -0.871093,-0.398438 -0.293729,-0.128516 -0.590718,-0.252835 -0.890626,-0.373046 -0.599814,-0.240422 -1.210691,-0.464993 -1.830078,-0.673829 -0.619385,-0.208834 -1.246806,-0.402602 -1.878906,-0.582031 -0.6321,-0.179429 -1.268293,-0.34389 -1.90625,-0.496094 -0.637957,-0.152202 -1.277104,-0.292763 -1.914062,-0.419922 -0.636959,-0.127157 -1.273242,-0.241409 -1.902344,-0.345703 -0.629102,-0.104293 -1.250845,-0.19764 -1.865234,-0.28125 -0.614389,-0.08361 -1.221634,-0.15755 -1.814454,-0.222656 -0.592819,-0.06511 -1.171934,-0.121139 -1.736328,-0.169922 -0.564392,-0.04878 -1.113468,-0.09036 -1.642578,-0.125 -1.058219,-0.06928 -2.038117,-0.112878 -2.914062,-0.138672 -0.875946,-0.02579 -1.648291,-0.03345 -2.28711,-0.0332 z" /><path
       style="fill:#ffffff"
       d="M 62.29053,73.088746 120.11899,129.31086 134.36594,114.65685 76.828037,58.717226 62.581087,73.371231 Z"
       id="path2111" /><path
       style="fill:#ffffff"
       d="m 120.38671,129.04313 v 4.55132 h 14.45712 l 4.28359,-4.55132 0.26772,-13.65394 -5.08676,-0.80317 z"
       id="path2112" /></g></svg>
