<svg xmlns="http://www.w3.org/2000/svg" xmlns:xlink="http://www.w3.org/1999/xlink" xml:space="preserve" width="180" height="180"><defs><linearGradient id="a"><stop offset="0" style="stop-color:#000;stop-opacity:1"/><stop offset="1" style="stop-color:#000;stop-opacity:0"/></linearGradient><linearGradient xlink:href="#a" id="b" x1="89.598" x2="123.867" y1="100.932" y2="73.624" gradientTransform="matrix(1.00943 -.01914 -.00016 1.01927 -1.494 -.788)" gradientUnits="userSpaceOnUse"/></defs><path d="M82.723 64.2 68.396 79.204l46.862 45.56 14.324-15.007Z" style="fill:url(#b);stroke-width:1.01433"/><path d="M45.745 34.04a60 60 0 0 0-2.026.035l.9.832 10.712 9.18-.016.519-.006.174-.246 7.873-10.129 1.597-.045.008-8.928-7.142-1.78-1.424.183-.207-.72-.596s.017.186.054.531.095.847.18 1.48a81.2 81.2 0 0 0 1.2 6.744 75 75 0 0 0 .858 3.468q.246.898.525 1.814.28.915.596 1.838.315.922.668 1.842.352.919.744 1.824.393.905.826 1.785c.29.586.59 1.162.909 1.725a31 31 0 0 0 .998 1.644 26 26 0 0 0 1.09 1.541q.283.371.58.727a20 20 0 0 0 1.234 1.348 17 17 0 0 0 1.336 1.19q.347.278.707.532a14 14 0 0 0 1.494.918 12.7 12.7 0 0 0 2.45.979q.43.12.874.209a12.3 12.3 0 0 0 2.801.242q.49-.01.996-.059.505-.046 1.025-.13.521-.085 1.059-.208a18 18 0 0 0 1.092-.287q.553-.162 1.123-.367.57-.204 1.156-.451.587-.248 1.192-.54.603-.29 1.224-.626.621-.338 1.26-.72.639-.384 1.295-.815.655-.432 1.33-.912l6.037-4.305c1.038-1.962-.847 1.598 2.537-4.795q.387-.732.729-1.44.341-.706.636-1.39a33 33 0 0 0 1.008-2.643q.21-.636.375-1.25.168-.615.295-1.207.128-.591.217-1.162a18 18 0 0 0 .205-2.197 15 15 0 0 0-.08-2.027 12.678 12.678 0 0 0-.934-3.584 12 12 0 0 0-1.295-2.3 13 13 0 0 0-1.107-1.36q-.3-.323-.621-.63a16 16 0 0 0-1.358-1.165 19 19 0 0 0-1.498-1.045 22 22 0 0 0-1.62-.932 26 26 0 0 0-1.72-.822q-.44-.193-.89-.373-.9-.36-1.83-.674a41 41 0 0 0-1.88-.582 47 47 0 0 0-1.905-.496 53 53 0 0 0-3.817-.766 65 65 0 0 0-3.68-.504 75 75 0 0 0-3.378-.295 81 81 0 0 0-5.202-.172" style="fill:#fff"/><path d="m62.29 73.089 57.829 56.222 14.247-14.654-57.538-55.94-14.247 14.654Z" style="fill:#fff"/><path d="M120.387 129.043v4.551h14.457l4.283-4.55.268-13.655-5.087-.803z" style="fill:#fff"/></svg>