<?xml version="1.0" encoding="utf-8"?>
<!-- Generator: Adobe Illustrator 24.3.0, SVG Export Plug-In . SVG Version: 6.00 Build 0) Modified manually by Zandario -->
<svg aria-hidden="true" opacity=".33" focusable="false" data-prefix="fas"
  data-icon="crow" class="svg-inline--fa fa-crow fa-w-20" role="img" xmlns="http://www.w3.org/2000/svg" viewBox="0 0 196.8642883 196.8642883"
  width="196.8642883px" height="196.8642883px">
<style type="text/css">
	.st0{fill:#00132c;}
	.st1{fill:#376BA8;}
	.st2{fill:#104264;}
	.st3{fill:#585857;}
	.st4{fill:#F6F6F6;}
</style>
<g>
	<g>
		<g>
			<path class="st1" d="M31.1495476,116.7772598c-0.0536499-0.2075577-0.2349682-0.357254-0.448946-0.3703461l-6.9318886-0.4239578
				c-0.1558552-0.0095291-0.3070602,0.0550385-0.4079819,0.1741867c-0.1009235,0.1191483-0.1397495,0.2789536-0.104744,0.4311295
				c1.9844418,8.6268997,5.3987522,16.9871216,10.2496433,24.7084961c0.0829773,0.1320801,0.2233543,0.2173004,0.3788147,0.2300415
				c0.1554565,0.0127563,0.307991-0.0484314,0.4113426-0.1652527l4.5989227-5.1984558
				c0.1423798-0.1609344,0.1645393-0.39505,0.0551567-0.5800018
				C35.4336586,129.6374969,32.8359985,123.3016663,31.1495476,116.7772598z"/>
			<path class="st1" d="M30.7007618,80.4326477c0.2141724-0.0131149,0.3952141-0.1625977,0.4489136-0.3703384
				c1.6864452-6.5241547,4.2839794-12.8597336,7.8000584-18.8050766c0.1092758-0.1847725,0.0870819-0.4192238-0.0551567-0.5800018
				l-4.5989189-5.198452c-0.1033707-0.116848-0.2557716-0.178112-0.4112587-0.1653633
				c-0.1554871,0.0127449-0.2959099,0.0980415-0.3788986,0.2301445
				c-4.8507576,7.7212448-8.2650585,16.0814323-10.2495022,24.7081947c-0.0349998,0.152153,0.0038509,0.311882,0.1047649,0.4310074
				c0.100914,0.119133,0.2521591,0.1838455,0.4079933,0.1743011L30.7007618,80.4326477z"/>
			<path class="st1" d="M83.8977966,169.6045837c-0.0131149-0.2141724-0.1625977-0.3952179-0.3703384-0.4489136
				c-6.5240326-1.6864471-12.8597336-4.2841034-18.8050842-7.8002014c-0.1847687-0.1092682-0.41922-0.0870819-0.5800018,0.0551605
				l-5.1986923,4.5989227c-0.116848,0.1033783-0.1781197,0.2557831-0.1653748,0.4112701
				c0.0127487,0.1554871,0.0980415,0.2959137,0.2301445,0.3789062c7.7213631,4.8508759,16.0814476,8.2651825,24.7084465,10.2497406
				c0.152153,0.0350037,0.311882-0.0038452,0.431015-0.1047668c0.1191254-0.1009064,0.1838379-0.2521515,0.1743011-0.4079895
				L83.8977966,169.6045837z"/>
			<path class="st1" d="M139.6290436,161.4102325c-0.1609497-0.1423798-0.39505-0.1645203-0.5800018-0.0551453
				c-5.9454803,3.5163422-12.2813034,6.1141205-18.8055878,7.8005829c-0.20755,0.0536499-0.357254,0.2349701-0.3703384,0.4489441
				l-0.4239578,6.9320068c-0.0095367,0.1558533,0.0550385,0.3070526,0.1741867,0.4079742
				c0.1191483,0.1009369,0.2789612,0.1397552,0.4311295,0.1047516c8.6270142-1.9846802,16.9871216-5.3990021,24.7084961-10.2500153
				c0.1320801-0.0829773,0.2172852-0.2233582,0.2300415-0.3788147c0.0127411-0.1554718-0.0484467-0.3079987-0.1652832-0.4113464
				L139.6290436,161.4102325z"/>
			<path class="st1" d="M119.8877487,27.4747219c0.0043945,0.0718384,0.0546494,0.1325054,0.1243896,0.1502914
				c6.6811829,1.7038059,13.1675034,4.3619194,19.2425919,7.9820766c0.0618591,0.0368576,0.1405334,0.029541,0.194458-0.0181656
				l5.7070465-5.0489826c0.0389709-0.0344696,0.0594635-0.0852451,0.0553436-0.1371021
				c-0.0041046-0.0518589-0.0323486-0.0987816-0.0762482-0.1266975c-7.9526672-5.0576096-16.5930634-8.5826817-25.5114288-10.583231
				c-0.0507965-0.0113945-0.1039886,0.0017719-0.1436157,0.0355263c-0.0396347,0.0337543-0.0611496,0.0842018-0.0579681,0.1361637
				L119.8877487,27.4747219z"/>
			<path class="st1" d="M64.3222198,35.5885315c0.053978,0.0477562,0.1325455,0.0550613,0.194458,0.0181694
				c6.0749588-3.6199017,12.5610199-6.2778854,19.2420807-7.9816895c0.069664-0.017767,0.1199951-0.0785179,0.1243896-0.15028
				l0.4659348-7.6102505c0.0031815-0.0519733-0.01828-0.1024132-0.0579147-0.1361771
				c-0.0396423-0.0337639-0.092865-0.0469208-0.1436768-0.0355244c-8.9183502,2.0004215-17.558754,5.5254917-25.5114136,10.5829697
				c-0.0438881,0.0279102-0.0720978,0.0748196-0.0762062,0.126667s0.0163498,0.1026707,0.0553017,0.1371346L64.3222198,35.5885315z"
				/>
		</g>
		<g>
			<path class="st2" d="M115.4784851,28.9623013c0.1503448,0.0292568,0.3057404-0.012764,0.420929-0.1137142
				c0.1151886-0.1009483,0.1774445-0.2496071,0.1680908-0.4024868l-1.0333481-16.8874779
				c-0.0143433-0.2344103-0.1909027-0.4255829-0.4233322-0.4591885c-8.4598618-1.2231169-16.9757843-1.2253094-25.450943,0.000001
				c-0.2319641,0.0335369-0.4090195,0.2252502-0.4233398,0.4591894L87.70327,28.446104
				c-0.0093613,0.1529331,0.0526352,0.3015709,0.1678696,0.4025555c0.1152344,0.1009865,0.2707443,0.1429081,0.4211426,0.1136417
				C97.2319336,27.2227325,106.525528,27.2201443,115.4784851,28.9623013z"/>
			<path class="st2" d="M101.8853531,169.1830444c-4.649498,0-9.1939468-0.449295-13.593071-1.3053131
				c-0.1503448-0.0292511-0.3057327,0.0127563-0.4209213,0.1137085c-0.1151962,0.1009521-0.1774445,0.2496033-0.1680908,0.4024811
				l1.0332718,16.8874817c0.0143433,0.2344055,0.1909103,0.4255829,0.4233398,0.459198
				c8.4598618,1.2230988,16.9757919,1.2253265,25.450943,0c0.2319641-0.0335388,0.4090195-0.2252502,0.4233322-0.459198
				l1.0333481-16.8874664c0.0093613-0.1529388-0.0526428-0.3015747-0.1678696-0.4025574
				c-0.1152344-0.1009979-0.270752-0.1429138-0.4211502-0.1136475
				C111.079361,168.7337494,106.5348434,169.1830444,101.8853531,169.1830444z"/>
			<path class="st2" d="M31.1222248,98.4199066c0-4.6494904,0.4493446-9.1939392,1.3053761-13.5930634
				c0.0292587-0.1503448-0.0127602-0.3057327-0.1137123-0.420929c-0.1009483-0.1151886-0.2496071-0.1774445-0.4024868-0.1680832
				l-16.8874779,1.0333405c-0.2344103,0.0143433-0.4255829,0.1909027-0.4591875,0.4233398
				c-1.2230988,8.4597244-1.2253094,16.9758453,0,25.4508667c0.0335369,0.2319641,0.2252493,0.4090271,0.4591875,0.4233398
				l16.8874779,1.0333481c0.1529369,0.0093536,0.3015728-0.0526428,0.4025593-0.1678772
				c0.1009865-0.1152267,0.14291-0.2707443,0.1136398-0.4211426
				C31.5715694,107.6139221,31.1222248,103.0694733,31.1222248,98.4199066z"/>
		</g>
		<path class="st2" d="M159.189209,135.5783844l-3.1565552-3.5681305c-0.1032562-0.1167297-0.2554474-0.1779938-0.4107666-0.1654205
			c-0.1553345,0.0125885-0.2957153,0.0975647-0.3788757,0.2293701c-2.4531097,3.8876495-5.3569946,7.5718079-8.7443542,10.9591675
			c-24.6391678,24.6391602-64.5873947,24.6391602-89.2265549,0c-24.6392937-24.6392899-24.6392937-64.5873871,0-89.2266769
			c24.6391602-24.6391621,64.5873871-24.6391621,89.2265549,0c3.495163,3.4951706,6.4755859,7.3063278,8.9770813,11.3308411
			c0.0276031,0.0444336,0.0746002,0.0731888,0.1267242,0.0775833c0.052124,0.0044022,0.1033173-0.0160675,0.13797-0.0552444
			l15.5191193-17.541935c0.0519257-0.0587006,0.0554962-0.1454468,0.0087585-0.2083588
			c-1.5020599-2.0214844-3.111496-3.9875641-4.8070984-5.9041824c-0.0302582-0.0342026-0.0733032-0.0543709-0.1189423-0.0557861
			s-0.0899506,0.0160141-0.1222534,0.0483055l-5.7272797,5.7272873c-0.0620575,0.0620499-0.1614532,0.0648422-0.2270203,0.0065155
			c-1.2603607-1.1211777-2.5029297-2.2725792-3.7111511-3.4808044c-1.2082214-1.2082214-2.3597565-2.4509125-3.4809418-3.7112885
			c-0.0582428-0.0654716-0.0554504-0.1650581,0.0065155-0.2270203l5.727417-5.7272835
			c0.0323181-0.0323143,0.0498352-0.0765419,0.0484161-0.1222153s-0.0216675-0.0887032-0.0558929-0.1189842
			c-1.916626-1.6955948-3.8827057-3.3049011-5.9043121-4.8069572c-0.0627899-0.0466499-0.1497803-0.0430698-0.2083588,0.0087585
			l-13.549469,11.9869118c-0.0556946,0.0492668-0.1371918,0.0553017-0.1996307,0.0149002
			c-22.4794235-14.5486355-51.6264343-14.5486355-74.1058731,0c-0.0623322,0.0403404-0.1440125,0.0342979-0.1996307-0.0149002
			L51.2841072,29.2235336c-0.1756172-0.1553631-0.4364777-0.1664543-0.6242218-0.0259838
			c-1.853405,1.3867378-3.6601448,2.863348-5.4249077,4.4135761c-0.1028061,0.090313-0.1635818,0.2191505-0.1680679,0.3559189
			c-0.0044823,0.1367645,0.0476227,0.2696114,0.1443863,0.3663712l5.2591629,5.2590485
			c0.1856155,0.1856117,0.1942558,0.4840164,0.0192833,0.6796913c-1.0557709,1.1806946-2.1396942,2.3449059-3.2735481,3.4787598
			c-1.1338577,1.1338577-2.2979584,2.2176704-3.4786339,3.2734261c-0.1959381,0.1752052-0.4938278,0.1665764-0.6796875-0.0192833
			l-5.2590523-5.2590485c-0.0968208-0.0968208-0.2294197-0.1492119-0.3662682-0.1447258
			c-0.1368523,0.0044899-0.2656441,0.0655403-0.3560104,0.1684113c-1.5502434,1.7647591-3.0269508,3.5714836-4.4136963,5.424778
			c-0.1407661,0.1881218-0.1297073,0.4482574,0.0259743,0.6242332l11.6441383,13.1619949
			c0.1468582,0.1660042,0.1652832,0.4088287,0.0455399,0.5953407c-14.3691063,22.3813171-14.3691063,51.3066635,0,73.6879807
			c0.1195755,0.1862488,0.1011124,0.4295807-0.0455399,0.5953369l-11.644165,13.1620331
			c-0.1553459,0.1755981-0.1664543,0.4364166-0.0260239,0.6241608c1.4777184,1.9756012,2.9432335,3.7507935,4.4137726,5.4248199
			c0.0903091,0.1027985,0.2191467,0.1635742,0.3559113,0.1680603s0.2696075-0.0476074,0.3663673-0.1443787
			c5.4314804-5.4314728,5.4465828-5.7184143,5.9387398-5.2783203c1.1806755,1.0557556,2.3447762,2.1395569,3.4786339,3.2734222
			c1.1338539,1.1338501,2.2177773,2.2980652,3.2735481,3.4787598c0.175209,0.1959381,0.1665802,0.4938354-0.0192833,0.6796875
			l-5.2591629,5.2590485c-0.0968246,0.096817-0.1492157,0.2294159-0.1447296,0.366272s0.0655403,0.2656555,0.1684113,0.3560181
			c1.7647629,1.5502319,3.5715027,3.0268402,5.4249077,4.4135742c0.1881218,0.1407623,0.4482498,0.1296997,0.6242218-0.0259857
			l13.161869-11.6440125c0.1660004-0.1468658,0.4088287-0.1652832,0.5953445-0.0455475
			c22.3811874,14.3691101,51.3069229,14.3691101,73.6881104,0c0.1862488-0.1195679,0.4295807-0.1011047,0.5953522,0.0455475
			l13.1618652,11.6440125c0.1756134,0.155365,0.4364777,0.1664581,0.6242218,0.0259857
			c1.8534088-1.386734,3.660141-2.8633423,5.4248962-4.4135742c0.1028137-0.0903168,0.1635895-0.2191467,0.1680756-0.3559113
			c0.0044861-0.1367798-0.0476227-0.2696228-0.1443787-0.3663788l-5.2591705-5.2590485
			c-0.1856079-0.1856079-0.1942596-0.484024-0.0192871-0.6796875c1.0557709-1.1806946,2.1396942-2.3449097,3.2735596-3.4787598
			c1.1338501-1.1338654,2.2979584-2.2176666,3.4786224-3.2734222c0.1959381-0.1752167,0.4938354-0.1665802,0.6796875,0.0192719
			l5.2590485,5.2590485c0.0968323,0.0968323,0.2294312,0.1492157,0.366272,0.1447296
			c0.1368561-0.0044861,0.2656555-0.0655365,0.3560181-0.1684113c1.5502472-1.7647552,3.026947-3.5714874,4.4136963-5.4247742
			c0.1407623-0.1881256,0.1296997-0.4482574-0.0259705-0.6242371L159.189209,135.5783844z"/>
		<path class="st3" d="M136.6635742,96.9640198c0.01091,0.2651062,0.2289124,0.4746628,0.4942474,0.4746628h18.522171
			c0.1336517,0,0.2616119-0.0540771,0.3548279-0.1498566c0.0932312-0.0957794,0.1439514-0.225235,0.1402588-0.3588409
			c-0.0549622-1.9904251-0.2147064-3.954361-0.4770203-5.8862534c-0.0316925-0.2333603-0.2228088-0.4112167-0.4577789-0.4268112
			l-9.19104-0.6099014c-0.2233124-0.0148163-0.4083099-0.1773148-0.4522858-0.396759
			c-1.1298065-5.6371231-3.3118744-10.8899002-6.3490295-15.5411148c-0.1212616-0.1857147-0.1043243-0.4297562,0.0417786-0.5966263
			l6.0863037-6.9514618c0.1542053-0.1761169,0.1636963-0.435173,0.0233765-0.6225357
			c-3.0327759-4.049366-6.5761108-7.6268272-10.6780853-10.7453613c-0.187027-0.1421928-0.4485931-0.1335526-0.6253662,0.0212173
			l-6.9175873,6.0567055c-0.1683807,0.1474266-0.4140778,0.1633339-0.6003494,0.0392799
			c-4.6282959-3.0824623-9.8655243-5.3191299-15.4925766-6.4992599c-0.2171173-0.0455322-0.3777542-0.2300873-0.3924408-0.4514389
			l-0.6109772-9.2080307c-0.0155106-0.2336807-0.1921387-0.4236412-0.4239807-0.4567719
			c-1.9466019-0.278183-3.927597-0.4483757-5.934967-0.5147514c-0.1341095-0.0044327-0.264267,0.0457611-0.360672,0.1390839
			c-0.096405,0.0933266-0.1507187,0.2217903-0.1507187,0.3559685v18.5258904c0,0.2637863,0.2064362,0.4805679,0.4698792,0.4939728
			C121.5932159,64.5662766,135.9237518,79.007576,136.6635742,96.9640198z M103.6815491,133.1849976
			c-0.2631149,0.013382-0.4698868,0.2305298-0.4698868,0.4939728v18.5258179c0,0.1342163,0.0545273,0.2626648,0.1510086,0.355957
			c0.096489,0.0933075,0.2267761,0.1436615,0.3609161,0.1390839c1.871254-0.0638885,3.7188187-0.2201538,5.5380249-0.4671631
			c0.2333527-0.0316772,0.4112167-0.2227936,0.4268112-0.4577789l0.6098938-9.1908417
			c0.0148239-0.2233124,0.1773224-0.4082947,0.3967667-0.4522858c5.6370621-1.129776,10.8897858-3.3121033,15.5411148-6.3492126
			c0.1857071-0.1212616,0.4297485-0.1043396,0.5966187,0.0417786l6.951561,6.0864105
			c0.1761322,0.1542053,0.4352112,0.1636963,0.6225586,0.0233612c3.970871-2.9743195,7.5671082-6.4978333,10.7452393-10.6781158
			c0.1421967-0.187027,0.1335602-0.4485931-0.0212097-0.6253662l-6.0565948-6.9175949
			c-0.1474304-0.1683731-0.1633301-0.4140701-0.0392914-0.6003342c3.0823059-4.6282959,5.3190308-9.8654785,6.4991608-15.4926529
			c0.0455322-0.2171097,0.2300873-0.3777466,0.4514313-0.3924408l9.2076416-0.6109924
			c0.2331238-0.0154724,0.4241028-0.1919022,0.4572601-0.4231796c0.244339-1.7040482,0.4104156-3.4333191,0.4932709-5.1844101
			c0.0063934-0.1352615-0.0428925-0.2672424-0.1363983-0.3651962c-0.0935059-0.0979614-0.223053-0.1532288-0.3584747-0.1532288
			h-18.5474854c-0.2598267,0-0.4746094,0.2003632-0.4932251,0.4595184
			C135.3539886,118.4061127,121.2351074,132.292038,103.6815491,133.1849976z M93.4724579,54.2559738
			c-0.0148163,0.2233162-0.1773148,0.4083061-0.396759,0.4522896c-5.6371231,1.1298256-10.8897934,3.3121033-15.5411148,6.3492737
			c-0.1857147,0.1212654-0.4297562,0.104332-0.5966263-0.0417747l-6.9515533-6.0864677
			c-0.1761246-0.1542053-0.4352112-0.1636963-0.6225662-0.0233574c-3.9634552,2.9688454-7.5609665,6.489872-10.7452316,10.6781006
			c-0.1421928,0.1870346-0.1335602,0.4486008,0.0212059,0.6253738l6.0565453,6.9175873
			c0.1474152,0.1683807,0.1633224,0.4140701,0.0392761,0.6003418c-3.0822945,4.6282959-5.3189621,9.8655243-6.4990921,15.4925232
			c-0.0455322,0.2171173-0.2300873,0.3777542-0.4514351,0.3924408l-9.208168,0.6110382
			c-0.2336731,0.0155029-0.4236336,0.192131-0.456768,0.4239578c-0.2943039,2.0589676-0.4677963,4.1563721-0.5246315,6.2831268
			c-0.0035706,0.1335754,0.0470123,0.2629242,0.140255,0.3586426c0.0932388,0.0957184,0.2212181,0.1496124,0.3548431,0.1496124
			h18.5223236c0.2656021,0,0.4833145-0.2092743,0.4942551-0.4746628
			c0.7344055-17.8253784,14.8597565-32.1933441,32.5881729-33.2938843c0.2607956-0.0161896,0.4643631-0.2322998,0.4643631-0.4935989
			V44.6466064c0-0.1348801-0.055069-0.2638855-0.1523819-0.3572807c-0.0973206-0.0933952-0.2285995-0.1433144-0.3633575-0.1376724
			c-1.7336655,0.0725822-3.4463196,0.2260704-5.1349487,0.4557266c-0.2333069,0.0317307-0.4111099,0.2228203-0.4267044,0.4577637
			L93.4724579,54.2559738z M67.1625214,100.9501572c-0.0185928-0.2587509-0.2338104-0.4595718-0.4932327-0.4595718H48.1253662
			c-0.1354523,0-0.2649498,0.055542-0.3584175,0.1535797c-0.0934677,0.0980301-0.1430016,0.2301636-0.1364365,0.3654556
			c0.0783691,1.6148834,0.227623,3.2110977,0.4421082,4.7867126c0.0317574,0.233284,0.2228355,0.4110565,0.457756,0.4266434
			l9.1909752,0.6099014c0.2233162,0.0148239,0.4083061,0.1773224,0.4522896,0.3967667
			c1.129818,5.6371231,3.311985,10.8900146,6.3491478,15.5412369c0.1212692,0.1857071,0.104332,0.4297485-0.0417709,0.5966263
			l-6.0863075,6.9514465c-0.1541977,0.1761169-0.1636963,0.4351959-0.0233727,0.6225433
			c3.1008072,4.1401825,6.6681824,7.6968689,10.6781387,10.7453766c0.187027,0.1421814,0.4485931,0.1335449,0.6253586-0.0212097
			l6.9176025-6.0566711c0.1683731-0.1474152,0.4140778-0.1633301,0.6003418-0.0392761
			c4.6282959,3.0824127,9.8654709,5.3190765,15.4925232,6.4992065c0.2171173,0.0455322,0.3777542,0.2300873,0.3924408,0.4514313
			l0.6109924,9.2074585c0.01548,0.2331848,0.1919785,0.4241791,0.423317,0.4572906
			c1.8165054,0.2599487,3.6625519,0.4275055,5.5322495,0.5033875c0.1346588,0.0054626,0.2656937-0.0442505,0.3629379-0.137558
			s0.1525116-0.22229,0.1525116-0.3570557v-18.5303802c0-0.261673-0.2032013-0.4774017-0.4643707-0.4936066
			C82.3240509,132.0915527,68.4074326,118.2761154,67.1625214,100.9501572z"/>
		<g>
			<path class="st4" d="M88.3609009,96.8467789c0.016037-0.0767288,0.0836792-0.1316986,0.1620712-0.1316986
				c0.0783844,0,0.1460342,0.0549698,0.1620712,0.1316986l2.1215744,10.1508179
				c0.1552887,0.742981,0.7358093,1.323494,1.4787903,1.4787827l10.1508102,2.121582
				c0.0767288,0.016037,0.1316986,0.0836792,0.1316986,0.1620712c0,0.0783844-0.0549698,0.1460342-0.1316986,0.1620712
				l-10.1508102,2.1215744c-0.742981,0.1552887-1.3235016,0.7358093-1.4787903,1.4787903l-2.1215744,10.1508102
				c-0.016037,0.0767288-0.0836868,0.1316986-0.1620712,0.1316986c-0.078392,0-0.1460342-0.0549698-0.1620712-0.1316986
				l-2.121582-10.1508102c-0.1552887-0.742981-0.7358017-1.3235016-1.4787827-1.4787903l-10.1508179-2.1215744
				c-0.0767288-0.016037-0.1316986-0.0836868-0.1316986-0.1620712c0-0.078392,0.0549698-0.1460342,0.1316986-0.1620712
				l10.1508179-2.121582c0.742981-0.1552887,1.323494-0.7358017,1.4787827-1.4787827L88.3609009,96.8467789z"/>
			<path class="st4" d="M115.0857086,70.3627319c0.016037-0.0767288,0.0836868-0.1316986,0.1620712-0.1316986
				c0.078392,0,0.1460342,0.0549698,0.1620712,0.1316986l2.121582,10.1508179
				c0.1552887,0.742981,0.7358017,1.323494,1.4787903,1.4787827l10.1508026,2.121582
				c0.0767365,0.016037,0.1316986,0.0836792,0.1316986,0.1620712c0,0.0783844-0.0549622,0.1460342-0.1316986,0.1620712
				l-10.1508026,2.1215744c-0.7429886,0.1552887-1.3235016,0.7358017-1.4787903,1.4787903l-2.121582,10.1508102
				c-0.016037,0.0767288-0.0836792,0.1316986-0.1620712,0.1316986c-0.0783844,0-0.1460342-0.0549698-0.1620712-0.1316986
				l-2.1215744-10.1508102c-0.1552887-0.7429886-0.7358017-1.3235016-1.4787903-1.4787903l-10.1508102-2.1215744
				c-0.0767288-0.016037-0.1316986-0.0836868-0.1316986-0.1620712c0-0.078392,0.0549698-0.1460342,0.1316986-0.1620712
				l10.1508102-2.121582c0.7429886-0.1552887,1.3235016-0.7358017,1.4787903-1.4787827L115.0857086,70.3627319z"/>
			<path class="st4" d="M97.6674957,87.9926147c0.0080185-0.0383606,0.0418396-0.0658493,0.0810394-0.0658493
				c0.0391922,0,0.0730133,0.0274887,0.0810318,0.0658493l1.0836868,5.1849747
				c0.0792084,0.3789444,0.3752823,0.6750183,0.7542267,0.7542191l5.1849747,1.0836945
				c0.0383606,0.0080185,0.0658493,0.0418396,0.0658493,0.0810318c0,0.0391998-0.0274887,0.0730209-0.0658493,0.0810394
				l-5.1849747,1.0836868c-0.3789444,0.0792007-0.6750183,0.3752823-0.7542267,0.7542267l-1.0836868,5.184967
				c-0.0080185,0.0383682-0.0418396,0.0658569-0.0810318,0.0658569c-0.0391998,0-0.0730209-0.0274887-0.0810394-0.0658569
				l-1.0836868-5.184967c-0.0792007-0.3789444-0.3752823-0.6750259-0.7542267-0.7542267l-5.1849747-1.0836868
				c-0.0383606-0.0080185-0.0658493-0.0418396-0.0658493-0.0810394c0-0.0391922,0.0274887-0.0730133,0.0658493-0.0810318
				l5.1849747-1.0836945c0.3789444-0.0792007,0.6750259-0.3752747,0.7542267-0.7542191L97.6674957,87.9926147z"/>
			<path class="st4" d="M111.5344925,108.3700256c0.0080185-0.0383682,0.0418396-0.0658493,0.0810394-0.0658493
				c0.0391922,0,0.0730133,0.0274811,0.0810318,0.0658493l0.910141,4.3546219
				c0.0673981,0.3224792,0.3193665,0.57444,0.6418381,0.6418381l4.3546295,0.910141
				c0.0383606,0.0080185,0.0658493,0.0418396,0.0658493,0.0810394c0,0.0391922-0.0274887,0.0730133-0.0658493,0.0810318
				l-4.3546295,0.910141c-0.3224716,0.0673981-0.57444,0.3193665-0.6418381,0.6418457l-0.910141,4.3546219
				c-0.0080185,0.0383606-0.0418396,0.0658493-0.0810318,0.0658493c-0.0391998,0-0.0730209-0.0274887-0.0810394-0.0658493
				l-0.910141-4.3546219c-0.0673981-0.3224792-0.3193588-0.5744476-0.6418381-0.6418457l-4.3546219-0.910141
				c-0.0383682-0.0080185-0.0658493-0.0418396-0.0658493-0.0810318c0-0.0391998,0.0274811-0.0730209,0.0658493-0.0810394
				l4.3546219-0.910141c0.3224792-0.0673981,0.57444-0.3193588,0.6418381-0.6418381L111.5344925,108.3700256z"/>
			<path class="st4" d="M82.9123993,82.6136017c0.0080185-0.0383606,0.0418396-0.0658493,0.0810318-0.0658493
				s0.0730209,0.0274887,0.0810394,0.0658493l0.6964798,3.3323517c0.0528717,0.2529678,0.2505188,0.4506149,0.5034866,0.5034866
				l3.3323517,0.6964798c0.0383606,0.0080185,0.0658493,0.0418396,0.0658493,0.0810394
				c0,0.0391922-0.0274887,0.0730133-0.0658493,0.0810318l-3.3323517,0.6964798
				c-0.2529678,0.0528717-0.4506149,0.2505188-0.5034866,0.5034866l-0.6964798,3.3323517
				c-0.0080185,0.0383682-0.0418472,0.0658493-0.0810394,0.0658493s-0.0730133-0.0274811-0.0810318-0.0658493l-0.6964798-3.3323517
				c-0.0528717-0.2529678-0.2505264-0.4506149-0.5034866-0.5034866l-3.3323517-0.6964798
				c-0.0383682-0.0080185-0.0658493-0.0418396-0.0658493-0.0810318c0-0.0391998,0.0274811-0.0730209,0.0658493-0.0810394
				l3.3323517-0.6964798c0.2529602-0.0528717,0.4506149-0.2505188,0.5034866-0.5034866L82.9123993,82.6136017z"/>
		</g>
	</g>
</g>
</svg>
